<mxfile host="65bd71144e" scale="0.5" border="0">
    <diagram id="iE6qEzHiYXfZ3j9LID3-" name="Modelo conceptual">
        <mxGraphModel dx="1043" dy="467" grid="1" gridSize="10" guides="1" tooltips="1" connect="1" arrows="1" fold="1" page="1" pageScale="1" pageWidth="1200" pageHeight="1920" background="none" math="0" shadow="0">
            <root>
                <mxCell id="0"/>
                <mxCell id="1" parent="0"/>
                <UserObject label="1:1" placeholders="1" name="Variable" id="35">
                    <mxCell style="text;html=1;strokeColor=none;fillColor=none;align=center;verticalAlign=middle;whiteSpace=wrap;overflow=hidden;" parent="1" vertex="1">
                        <mxGeometry x="330" y="186" width="30" height="20" as="geometry"/>
                    </mxCell>
                </UserObject>
                <UserObject label="1:1" placeholders="1" name="Variable" id="36">
                    <mxCell style="text;html=1;strokeColor=none;fillColor=none;align=center;verticalAlign=middle;whiteSpace=wrap;overflow=hidden;" parent="1" vertex="1">
                        <mxGeometry x="780" y="174" width="30" height="20" as="geometry"/>
                    </mxCell>
                </UserObject>
                <mxCell id="40" value="" style="html=1;whiteSpace=wrap;aspect=fixed;shape=isoRectangle;strokeColor=#6D1F00;fillColor=#a0522d;fontColor=#ffffff;" parent="1" vertex="1">
                    <mxGeometry x="368.34000000000003" y="184" width="83.33" height="50" as="geometry"/>
                </mxCell>
                <mxCell id="41" value="elige" style="text;strokeColor=none;fillColor=none;align=left;verticalAlign=top;spacingLeft=4;spacingRight=4;overflow=hidden;rotatable=0;points=[[0,0.5],[1,0.5]];portConstraint=eastwest;" parent="1" vertex="1">
                    <mxGeometry x="391.67" y="194" width="60" height="26" as="geometry"/>
                </mxCell>
                <mxCell id="44" style="edgeStyle=none;html=1;exitX=0;exitY=0.5;exitDx=0;exitDy=0;entryX=1.006;entryY=0.546;entryDx=0;entryDy=0;entryPerimeter=0;" parent="1" source="pCyHIW71zzCSvo0dhxa5-77" target="40" edge="1">
                    <mxGeometry relative="1" as="geometry">
                        <mxPoint x="510" y="197" as="sourcePoint"/>
                    </mxGeometry>
                </mxCell>
                <UserObject label="1:1" placeholders="1" name="Variable" id="46">
                    <mxCell style="text;html=1;strokeColor=none;fillColor=none;align=center;verticalAlign=middle;whiteSpace=wrap;overflow=hidden;" parent="1" vertex="1">
                        <mxGeometry x="470" y="174" width="30" height="20" as="geometry"/>
                    </mxCell>
                </UserObject>
                <mxCell id="47" value="" style="html=1;whiteSpace=wrap;aspect=fixed;shape=isoRectangle;strokeColor=#6D1F00;fillColor=#a0522d;fontColor=#ffffff;" parent="1" vertex="1">
                    <mxGeometry x="688.3399999999999" y="184" width="83.33" height="50" as="geometry"/>
                </mxCell>
                <mxCell id="61" style="edgeStyle=orthogonalEdgeStyle;html=1;exitX=1;exitY=0.5;exitDx=0;exitDy=0;entryX=0;entryY=0.5;entryDx=0;entryDy=0;" edge="1" parent="1" source="48" target="pCyHIW71zzCSvo0dhxa5-83">
                    <mxGeometry relative="1" as="geometry"/>
                </mxCell>
                <mxCell id="48" value="elige" style="text;strokeColor=none;fillColor=none;align=left;verticalAlign=top;spacingLeft=4;spacingRight=4;overflow=hidden;rotatable=0;points=[[0,0.5],[1,0.5]];portConstraint=eastwest;" parent="1" vertex="1">
                    <mxGeometry x="711.67" y="196" width="60" height="24" as="geometry"/>
                </mxCell>
                <mxCell id="51" style="edgeStyle=none;html=1;entryX=0.04;entryY=0.5;entryDx=0;entryDy=0;entryPerimeter=0;exitX=1;exitY=0.5;exitDx=0;exitDy=0;" parent="1" source="pCyHIW71zzCSvo0dhxa5-77" target="47" edge="1">
                    <mxGeometry relative="1" as="geometry">
                        <mxPoint x="640" y="197" as="sourcePoint"/>
                    </mxGeometry>
                </mxCell>
                <UserObject label="1:1" placeholders="1" name="Variable" id="52">
                    <mxCell style="text;html=1;strokeColor=none;fillColor=none;align=center;verticalAlign=middle;whiteSpace=wrap;overflow=hidden;" parent="1" vertex="1">
                        <mxGeometry x="650" y="172" width="30" height="20" as="geometry"/>
                    </mxCell>
                </UserObject>
                <mxCell id="pCyHIW71zzCSvo0dhxa5-69" value="Id" style="ellipse;whiteSpace=wrap;html=1;align=center;newEdgeStyle={&quot;edgeStyle&quot;:&quot;entityRelationEdgeStyle&quot;,&quot;startArrow&quot;:&quot;none&quot;,&quot;endArrow&quot;:&quot;none&quot;,&quot;segment&quot;:10,&quot;curved&quot;:1};treeFolding=1;treeMoving=1;strokeColor=#B09500;fillColor=#e3c800;fontColor=#000000;" parent="1" vertex="1">
                    <mxGeometry x="330" y="106" width="100" height="40" as="geometry"/>
                </mxCell>
                <mxCell id="pCyHIW71zzCSvo0dhxa5-70" value="Nombre" style="ellipse;whiteSpace=wrap;html=1;align=center;newEdgeStyle={&quot;edgeStyle&quot;:&quot;entityRelationEdgeStyle&quot;,&quot;startArrow&quot;:&quot;none&quot;,&quot;endArrow&quot;:&quot;none&quot;,&quot;segment&quot;:10,&quot;curved&quot;:1};treeFolding=1;treeMoving=1;strokeColor=#B09500;fillColor=#e3c800;fontColor=#000000;" parent="1" vertex="1">
                    <mxGeometry x="210" y="80" width="100" height="40" as="geometry"/>
                </mxCell>
                <mxCell id="pCyHIW71zzCSvo0dhxa5-71" value="Foto" style="ellipse;whiteSpace=wrap;html=1;align=center;newEdgeStyle={&quot;edgeStyle&quot;:&quot;entityRelationEdgeStyle&quot;,&quot;startArrow&quot;:&quot;none&quot;,&quot;endArrow&quot;:&quot;none&quot;,&quot;segment&quot;:10,&quot;curved&quot;:1};treeFolding=1;treeMoving=1;strokeColor=#B09500;fillColor=#e3c800;fontColor=#000000;" parent="1" vertex="1">
                    <mxGeometry x="90" y="106" width="100" height="40" as="geometry"/>
                </mxCell>
                <mxCell id="pCyHIW71zzCSvo0dhxa5-103" style="edgeStyle=orthogonalEdgeStyle;html=1;exitX=0.5;exitY=0;exitDx=0;exitDy=0;entryX=0.69;entryY=1.012;entryDx=0;entryDy=0;entryPerimeter=0;" parent="1" source="pCyHIW71zzCSvo0dhxa5-76" target="pCyHIW71zzCSvo0dhxa5-71" edge="1">
                    <mxGeometry relative="1" as="geometry"/>
                </mxCell>
                <mxCell id="pCyHIW71zzCSvo0dhxa5-104" style="edgeStyle=orthogonalEdgeStyle;html=1;exitX=0.75;exitY=0;exitDx=0;exitDy=0;entryX=0.324;entryY=0.952;entryDx=0;entryDy=0;entryPerimeter=0;" parent="1" source="pCyHIW71zzCSvo0dhxa5-76" target="pCyHIW71zzCSvo0dhxa5-70" edge="1">
                    <mxGeometry relative="1" as="geometry"/>
                </mxCell>
                <mxCell id="pCyHIW71zzCSvo0dhxa5-105" style="edgeStyle=orthogonalEdgeStyle;html=1;exitX=1;exitY=0;exitDx=0;exitDy=0;entryX=0.4;entryY=1.1;entryDx=0;entryDy=0;entryPerimeter=0;" parent="1" source="pCyHIW71zzCSvo0dhxa5-76" target="pCyHIW71zzCSvo0dhxa5-69" edge="1">
                    <mxGeometry relative="1" as="geometry"/>
                </mxCell>
                <mxCell id="58" style="edgeStyle=orthogonalEdgeStyle;html=1;exitX=0.25;exitY=0;exitDx=0;exitDy=0;entryX=1;entryY=0.5;entryDx=0;entryDy=0;" edge="1" parent="1" source="pCyHIW71zzCSvo0dhxa5-76" target="54">
                    <mxGeometry relative="1" as="geometry"/>
                </mxCell>
                <UserObject label="Totem" treeRoot="1" id="pCyHIW71zzCSvo0dhxa5-76">
                    <mxCell style="whiteSpace=wrap;html=1;align=center;treeFolding=1;treeMoving=1;newEdgeStyle={&quot;edgeStyle&quot;:&quot;elbowEdgeStyle&quot;,&quot;startArrow&quot;:&quot;none&quot;,&quot;endArrow&quot;:&quot;none&quot;};strokeColor=#B09500;fillColor=#e3c800;fontColor=#000000;" parent="1" vertex="1">
                        <mxGeometry x="210" y="180" width="120" height="60" as="geometry"/>
                    </mxCell>
                </UserObject>
                <mxCell id="pCyHIW71zzCSvo0dhxa5-106" style="edgeStyle=orthogonalEdgeStyle;html=1;exitX=0.25;exitY=0;exitDx=0;exitDy=0;entryX=0.5;entryY=1;entryDx=0;entryDy=0;" parent="1" source="pCyHIW71zzCSvo0dhxa5-77" target="pCyHIW71zzCSvo0dhxa5-79" edge="1">
                    <mxGeometry relative="1" as="geometry"/>
                </mxCell>
                <mxCell id="pCyHIW71zzCSvo0dhxa5-107" style="edgeStyle=orthogonalEdgeStyle;html=1;exitX=0.5;exitY=0;exitDx=0;exitDy=0;entryX=0.5;entryY=1;entryDx=0;entryDy=0;" parent="1" source="pCyHIW71zzCSvo0dhxa5-77" target="pCyHIW71zzCSvo0dhxa5-78" edge="1">
                    <mxGeometry relative="1" as="geometry"/>
                </mxCell>
                <mxCell id="pCyHIW71zzCSvo0dhxa5-108" style="edgeStyle=orthogonalEdgeStyle;html=1;exitX=0.75;exitY=0;exitDx=0;exitDy=0;entryX=0.5;entryY=1;entryDx=0;entryDy=0;" parent="1" source="pCyHIW71zzCSvo0dhxa5-77" target="pCyHIW71zzCSvo0dhxa5-81" edge="1">
                    <mxGeometry relative="1" as="geometry"/>
                </mxCell>
                <mxCell id="_eCifLH6FwVJIG36iBmr-53" style="edgeStyle=orthogonalEdgeStyle;html=1;exitX=0;exitY=1;exitDx=0;exitDy=0;entryX=0.5;entryY=0;entryDx=0;entryDy=0;" parent="1" source="pCyHIW71zzCSvo0dhxa5-77" target="pCyHIW71zzCSvo0dhxa5-80" edge="1">
                    <mxGeometry relative="1" as="geometry"/>
                </mxCell>
                <mxCell id="_eCifLH6FwVJIG36iBmr-54" style="edgeStyle=orthogonalEdgeStyle;html=1;exitX=1;exitY=1;exitDx=0;exitDy=0;entryX=0.5;entryY=0;entryDx=0;entryDy=0;" parent="1" source="pCyHIW71zzCSvo0dhxa5-77" target="pCyHIW71zzCSvo0dhxa5-82" edge="1">
                    <mxGeometry relative="1" as="geometry"/>
                </mxCell>
                <UserObject label="Usuario" treeRoot="1" id="pCyHIW71zzCSvo0dhxa5-77">
                    <mxCell style="whiteSpace=wrap;html=1;align=center;treeFolding=1;treeMoving=1;newEdgeStyle={&quot;edgeStyle&quot;:&quot;elbowEdgeStyle&quot;,&quot;startArrow&quot;:&quot;none&quot;,&quot;endArrow&quot;:&quot;none&quot;};strokeColor=#B20000;fillColor=#e51400;fontColor=#ffffff;" parent="1" vertex="1">
                        <mxGeometry x="510" y="180" width="120" height="60" as="geometry"/>
                    </mxCell>
                </UserObject>
                <mxCell id="pCyHIW71zzCSvo0dhxa5-78" value="Id" style="ellipse;whiteSpace=wrap;html=1;align=center;newEdgeStyle={&quot;edgeStyle&quot;:&quot;entityRelationEdgeStyle&quot;,&quot;startArrow&quot;:&quot;none&quot;,&quot;endArrow&quot;:&quot;none&quot;,&quot;segment&quot;:10,&quot;curved&quot;:1};treeFolding=1;treeMoving=1;strokeColor=#B20000;fillColor=#e51400;fontColor=#ffffff;" parent="1" vertex="1">
                    <mxGeometry x="520" y="52" width="100" height="40" as="geometry"/>
                </mxCell>
                <mxCell id="pCyHIW71zzCSvo0dhxa5-79" value="Nombre" style="ellipse;whiteSpace=wrap;html=1;align=center;newEdgeStyle={&quot;edgeStyle&quot;:&quot;entityRelationEdgeStyle&quot;,&quot;startArrow&quot;:&quot;none&quot;,&quot;endArrow&quot;:&quot;none&quot;,&quot;segment&quot;:10,&quot;curved&quot;:1};treeFolding=1;treeMoving=1;strokeColor=#B20000;fillColor=#e51400;fontColor=#ffffff;" parent="1" vertex="1">
                    <mxGeometry x="440" y="92" width="100" height="40" as="geometry"/>
                </mxCell>
                <mxCell id="pCyHIW71zzCSvo0dhxa5-80" value="email" style="ellipse;whiteSpace=wrap;html=1;align=center;newEdgeStyle={&quot;edgeStyle&quot;:&quot;entityRelationEdgeStyle&quot;,&quot;startArrow&quot;:&quot;none&quot;,&quot;endArrow&quot;:&quot;none&quot;,&quot;segment&quot;:10,&quot;curved&quot;:1};treeFolding=1;treeMoving=1;strokeColor=#B20000;fillColor=#e51400;fontColor=#ffffff;" parent="1" vertex="1">
                    <mxGeometry x="460" y="300" width="100" height="40" as="geometry"/>
                </mxCell>
                <mxCell id="pCyHIW71zzCSvo0dhxa5-81" value="Foto" style="ellipse;whiteSpace=wrap;html=1;align=center;newEdgeStyle={&quot;edgeStyle&quot;:&quot;entityRelationEdgeStyle&quot;,&quot;startArrow&quot;:&quot;none&quot;,&quot;endArrow&quot;:&quot;none&quot;,&quot;segment&quot;:10,&quot;curved&quot;:1};treeFolding=1;treeMoving=1;strokeColor=#B20000;fillColor=#e51400;fontColor=#ffffff;" parent="1" vertex="1">
                    <mxGeometry x="610" y="92" width="100" height="40" as="geometry"/>
                </mxCell>
                <mxCell id="pCyHIW71zzCSvo0dhxa5-82" value="Password" style="ellipse;whiteSpace=wrap;html=1;align=center;newEdgeStyle={&quot;edgeStyle&quot;:&quot;entityRelationEdgeStyle&quot;,&quot;startArrow&quot;:&quot;none&quot;,&quot;endArrow&quot;:&quot;none&quot;,&quot;segment&quot;:10,&quot;curved&quot;:1};treeFolding=1;treeMoving=1;strokeColor=#B20000;fillColor=#e51400;fontColor=#ffffff;" parent="1" vertex="1">
                    <mxGeometry x="580" y="300" width="100" height="40" as="geometry"/>
                </mxCell>
                <mxCell id="_eCifLH6FwVJIG36iBmr-59" style="edgeStyle=orthogonalEdgeStyle;html=1;exitX=0;exitY=0;exitDx=0;exitDy=0;entryX=0.5;entryY=1;entryDx=0;entryDy=0;" parent="1" source="pCyHIW71zzCSvo0dhxa5-83" target="pCyHIW71zzCSvo0dhxa5-84" edge="1">
                    <mxGeometry relative="1" as="geometry"/>
                </mxCell>
                <mxCell id="_eCifLH6FwVJIG36iBmr-60" style="edgeStyle=orthogonalEdgeStyle;html=1;exitX=0.25;exitY=0;exitDx=0;exitDy=0;entryX=1;entryY=1;entryDx=0;entryDy=0;" parent="1" source="pCyHIW71zzCSvo0dhxa5-83" target="pCyHIW71zzCSvo0dhxa5-85" edge="1">
                    <mxGeometry relative="1" as="geometry"/>
                </mxCell>
                <mxCell id="_eCifLH6FwVJIG36iBmr-61" style="edgeStyle=orthogonalEdgeStyle;html=1;exitX=0.5;exitY=0;exitDx=0;exitDy=0;entryX=0.5;entryY=1;entryDx=0;entryDy=0;" parent="1" source="pCyHIW71zzCSvo0dhxa5-83" target="pCyHIW71zzCSvo0dhxa5-86" edge="1">
                    <mxGeometry relative="1" as="geometry"/>
                </mxCell>
                <mxCell id="_eCifLH6FwVJIG36iBmr-62" style="edgeStyle=orthogonalEdgeStyle;html=1;exitX=0.75;exitY=0;exitDx=0;exitDy=0;entryX=0;entryY=1;entryDx=0;entryDy=0;" parent="1" source="pCyHIW71zzCSvo0dhxa5-83" target="pCyHIW71zzCSvo0dhxa5-87" edge="1">
                    <mxGeometry relative="1" as="geometry"/>
                </mxCell>
                <UserObject label="Carta" treeRoot="1" id="pCyHIW71zzCSvo0dhxa5-83">
                    <mxCell style="whiteSpace=wrap;html=1;align=center;treeFolding=1;treeMoving=1;newEdgeStyle={&quot;edgeStyle&quot;:&quot;elbowEdgeStyle&quot;,&quot;startArrow&quot;:&quot;none&quot;,&quot;endArrow&quot;:&quot;none&quot;};strokeColor=#2D7600;fillColor=#60a917;fontColor=#ffffff;" parent="1" vertex="1">
                        <mxGeometry x="830" y="180" width="120" height="60" as="geometry"/>
                    </mxCell>
                </UserObject>
                <mxCell id="pCyHIW71zzCSvo0dhxa5-84" value="Id" style="ellipse;whiteSpace=wrap;html=1;align=center;newEdgeStyle={&quot;edgeStyle&quot;:&quot;entityRelationEdgeStyle&quot;,&quot;startArrow&quot;:&quot;none&quot;,&quot;endArrow&quot;:&quot;none&quot;,&quot;segment&quot;:10,&quot;curved&quot;:1};treeFolding=1;treeMoving=1;strokeColor=#2D7600;fillColor=#60a917;fontColor=#ffffff;" parent="1" vertex="1">
                    <mxGeometry x="715" y="110" width="100" height="40" as="geometry"/>
                </mxCell>
                <mxCell id="pCyHIW71zzCSvo0dhxa5-85" value="Nombre" style="ellipse;whiteSpace=wrap;html=1;align=center;newEdgeStyle={&quot;edgeStyle&quot;:&quot;entityRelationEdgeStyle&quot;,&quot;startArrow&quot;:&quot;none&quot;,&quot;endArrow&quot;:&quot;none&quot;,&quot;segment&quot;:10,&quot;curved&quot;:1};treeFolding=1;treeMoving=1;strokeColor=#2D7600;fillColor=#60a917;fontColor=#ffffff;" parent="1" vertex="1">
                    <mxGeometry x="815" y="80" width="100" height="40" as="geometry"/>
                </mxCell>
                <mxCell id="pCyHIW71zzCSvo0dhxa5-86" value="Foto" style="ellipse;whiteSpace=wrap;html=1;align=center;newEdgeStyle={&quot;edgeStyle&quot;:&quot;entityRelationEdgeStyle&quot;,&quot;startArrow&quot;:&quot;none&quot;,&quot;endArrow&quot;:&quot;none&quot;,&quot;segment&quot;:10,&quot;curved&quot;:1};treeFolding=1;treeMoving=1;strokeColor=#2D7600;fillColor=#60a917;fontColor=#ffffff;" parent="1" vertex="1">
                    <mxGeometry x="950" y="106" width="100" height="40" as="geometry"/>
                </mxCell>
                <mxCell id="pCyHIW71zzCSvo0dhxa5-87" value="Significado" style="ellipse;whiteSpace=wrap;html=1;align=center;newEdgeStyle={&quot;edgeStyle&quot;:&quot;entityRelationEdgeStyle&quot;,&quot;startArrow&quot;:&quot;none&quot;,&quot;endArrow&quot;:&quot;none&quot;,&quot;segment&quot;:10,&quot;curved&quot;:1};treeFolding=1;treeMoving=1;strokeColor=#2D7600;fillColor=#60a917;fontColor=#ffffff;" parent="1" vertex="1">
                    <mxGeometry x="990" y="187" width="100" height="40" as="geometry"/>
                </mxCell>
                <mxCell id="ReUuybEWFd-jLYVmtw9k-53" value="Foto" style="ellipse;whiteSpace=wrap;html=1;align=center;newEdgeStyle={&quot;edgeStyle&quot;:&quot;entityRelationEdgeStyle&quot;,&quot;startArrow&quot;:&quot;none&quot;,&quot;endArrow&quot;:&quot;none&quot;,&quot;segment&quot;:10,&quot;curved&quot;:1};treeFolding=1;treeMoving=1;strokeColor=#B20000;fillColor=#e51400;fontColor=#ffffff;" parent="1" vertex="1">
                    <mxGeometry x="520" y="470" width="100" height="40" as="geometry"/>
                </mxCell>
                <mxCell id="54" value="Significado" style="ellipse;whiteSpace=wrap;html=1;align=center;newEdgeStyle={&quot;edgeStyle&quot;:&quot;entityRelationEdgeStyle&quot;,&quot;startArrow&quot;:&quot;none&quot;,&quot;endArrow&quot;:&quot;none&quot;,&quot;segment&quot;:10,&quot;curved&quot;:1};treeFolding=1;treeMoving=1;strokeColor=#B09500;fillColor=#e3c800;fontColor=#000000;" vertex="1" parent="1">
                    <mxGeometry x="50" y="187" width="100" height="40" as="geometry"/>
                </mxCell>
                <mxCell id="59" value="" style="endArrow=classic;html=1;entryX=1;entryY=0.5;entryDx=0;entryDy=0;" edge="1" parent="1" target="pCyHIW71zzCSvo0dhxa5-76">
                    <mxGeometry width="50" height="50" relative="1" as="geometry">
                        <mxPoint x="370" y="210" as="sourcePoint"/>
                        <mxPoint x="620" y="170" as="targetPoint"/>
                    </mxGeometry>
                </mxCell>
                <mxCell id="WdvmAIKZVsrWTB-4Ifth-61" value="Historia" style="ellipse;whiteSpace=wrap;html=1;align=center;newEdgeStyle={&quot;edgeStyle&quot;:&quot;entityRelationEdgeStyle&quot;,&quot;startArrow&quot;:&quot;none&quot;,&quot;endArrow&quot;:&quot;none&quot;,&quot;segment&quot;:10,&quot;curved&quot;:1};treeFolding=1;treeMoving=1;strokeColor=#B20000;fillColor=#e51400;fontColor=#ffffff;" vertex="1" parent="1">
                    <mxGeometry x="520" y="360" width="100" height="40" as="geometry"/>
                </mxCell>
                <mxCell id="WdvmAIKZVsrWTB-4Ifth-62" value="" style="endArrow=classic;html=1;exitX=0.5;exitY=1;exitDx=0;exitDy=0;entryX=0.5;entryY=0;entryDx=0;entryDy=0;" edge="1" parent="1" source="pCyHIW71zzCSvo0dhxa5-77" target="WdvmAIKZVsrWTB-4Ifth-61">
                    <mxGeometry width="50" height="50" relative="1" as="geometry">
                        <mxPoint x="570" y="220" as="sourcePoint"/>
                        <mxPoint x="620" y="170" as="targetPoint"/>
                    </mxGeometry>
                </mxCell>
            </root>
        </mxGraphModel>
    </diagram>
    <diagram name="Inicio modelo lógico" id="D69tmYM4fXNlvvnJkglO">
        <mxGraphModel dx="1043" dy="467" grid="1" gridSize="10" guides="1" tooltips="1" connect="1" arrows="1" fold="1" page="1" pageScale="1" pageWidth="980" pageHeight="1390" background="none" math="0" shadow="0">
            <root>
                <mxCell id="hHqZHQeaDjUlf17yymRI-0"/>
                <mxCell id="hHqZHQeaDjUlf17yymRI-1" parent="hHqZHQeaDjUlf17yymRI-0"/>
                <mxCell id="hHqZHQeaDjUlf17yymRI-2" value="Carta" style="swimlane;fontStyle=0;childLayout=stackLayout;horizontal=1;startSize=26;fillColor=#60a917;horizontalStack=0;resizeParent=1;resizeParentMax=0;resizeLast=0;collapsible=1;marginBottom=0;fontColor=#ffffff;strokeColor=#2D7600;" parent="hHqZHQeaDjUlf17yymRI-1" vertex="1">
                    <mxGeometry x="720" y="40" width="140" height="130" as="geometry"/>
                </mxCell>
                <mxCell id="hHqZHQeaDjUlf17yymRI-3" value="Id [PK]" style="text;strokeColor=none;fillColor=none;align=left;verticalAlign=top;spacingLeft=4;spacingRight=4;overflow=hidden;rotatable=0;points=[[0,0.5],[1,0.5]];portConstraint=eastwest;" parent="hHqZHQeaDjUlf17yymRI-2" vertex="1">
                    <mxGeometry y="26" width="140" height="26" as="geometry"/>
                </mxCell>
                <mxCell id="hHqZHQeaDjUlf17yymRI-4" value="Nombre" style="text;strokeColor=none;fillColor=none;align=left;verticalAlign=top;spacingLeft=4;spacingRight=4;overflow=hidden;rotatable=0;points=[[0,0.5],[1,0.5]];portConstraint=eastwest;" parent="hHqZHQeaDjUlf17yymRI-2" vertex="1">
                    <mxGeometry y="52" width="140" height="26" as="geometry"/>
                </mxCell>
                <mxCell id="hHqZHQeaDjUlf17yymRI-8" value="Foto" style="text;strokeColor=none;fillColor=none;align=left;verticalAlign=top;spacingLeft=4;spacingRight=4;overflow=hidden;rotatable=0;points=[[0,0.5],[1,0.5]];portConstraint=eastwest;" parent="hHqZHQeaDjUlf17yymRI-2" vertex="1">
                    <mxGeometry y="78" width="140" height="26" as="geometry"/>
                </mxCell>
                <mxCell id="sWroOtHjZFTIptuPELxP-1" value="Significado" style="text;strokeColor=none;fillColor=none;align=left;verticalAlign=top;spacingLeft=4;spacingRight=4;overflow=hidden;rotatable=0;points=[[0,0.5],[1,0.5]];portConstraint=eastwest;" parent="hHqZHQeaDjUlf17yymRI-2" vertex="1">
                    <mxGeometry y="104" width="140" height="26" as="geometry"/>
                </mxCell>
                <mxCell id="hHqZHQeaDjUlf17yymRI-10" value="Totem" style="swimlane;fontStyle=0;childLayout=stackLayout;horizontal=1;startSize=26;fillColor=#e3c800;horizontalStack=0;resizeParent=1;resizeParentMax=0;resizeLast=0;collapsible=1;marginBottom=0;fontColor=#000000;strokeColor=#B09500;" parent="hHqZHQeaDjUlf17yymRI-1" vertex="1">
                    <mxGeometry x="90" y="40" width="140" height="130" as="geometry"/>
                </mxCell>
                <mxCell id="hHqZHQeaDjUlf17yymRI-11" value="Id [PK]" style="text;strokeColor=none;fillColor=none;align=left;verticalAlign=top;spacingLeft=4;spacingRight=4;overflow=hidden;rotatable=0;points=[[0,0.5],[1,0.5]];portConstraint=eastwest;" parent="hHqZHQeaDjUlf17yymRI-10" vertex="1">
                    <mxGeometry y="26" width="140" height="26" as="geometry"/>
                </mxCell>
                <mxCell id="hHqZHQeaDjUlf17yymRI-12" value="Nombre" style="text;strokeColor=none;fillColor=none;align=left;verticalAlign=top;spacingLeft=4;spacingRight=4;overflow=hidden;rotatable=0;points=[[0,0.5],[1,0.5]];portConstraint=eastwest;" parent="hHqZHQeaDjUlf17yymRI-10" vertex="1">
                    <mxGeometry y="52" width="140" height="26" as="geometry"/>
                </mxCell>
                <mxCell id="YVK6UqGNmw5OA04rjKyP-0" value="Foto" style="text;strokeColor=none;fillColor=none;align=left;verticalAlign=top;spacingLeft=4;spacingRight=4;overflow=hidden;rotatable=0;points=[[0,0.5],[1,0.5]];portConstraint=eastwest;" parent="hHqZHQeaDjUlf17yymRI-10" vertex="1">
                    <mxGeometry y="78" width="140" height="26" as="geometry"/>
                </mxCell>
                <mxCell id="hHqZHQeaDjUlf17yymRI-14" value="Significado" style="text;strokeColor=none;fillColor=none;align=left;verticalAlign=top;spacingLeft=4;spacingRight=4;overflow=hidden;rotatable=0;points=[[0,0.5],[1,0.5]];portConstraint=eastwest;" parent="hHqZHQeaDjUlf17yymRI-10" vertex="1">
                    <mxGeometry y="104" width="140" height="26" as="geometry"/>
                </mxCell>
                <mxCell id="hHqZHQeaDjUlf17yymRI-18" value="Usuario" style="swimlane;fontStyle=0;childLayout=stackLayout;horizontal=1;startSize=26;fillColor=#e51400;horizontalStack=0;resizeParent=1;resizeParentMax=0;resizeLast=0;collapsible=1;marginBottom=0;fontColor=#ffffff;strokeColor=#B20000;" parent="hHqZHQeaDjUlf17yymRI-1" vertex="1">
                    <mxGeometry x="414" y="40" width="140" height="186" as="geometry"/>
                </mxCell>
                <mxCell id="hHqZHQeaDjUlf17yymRI-19" value="Id [PK]" style="text;strokeColor=none;fillColor=none;align=left;verticalAlign=top;spacingLeft=4;spacingRight=4;overflow=hidden;rotatable=0;points=[[0,0.5],[1,0.5]];portConstraint=eastwest;" parent="hHqZHQeaDjUlf17yymRI-18" vertex="1">
                    <mxGeometry y="26" width="140" height="26" as="geometry"/>
                </mxCell>
                <mxCell id="hHqZHQeaDjUlf17yymRI-20" value="Nombre " style="text;strokeColor=none;fillColor=none;align=left;verticalAlign=top;spacingLeft=4;spacingRight=4;overflow=hidden;rotatable=0;points=[[0,0.5],[1,0.5]];portConstraint=eastwest;" parent="hHqZHQeaDjUlf17yymRI-18" vertex="1">
                    <mxGeometry y="52" width="140" height="26" as="geometry"/>
                </mxCell>
                <mxCell id="00NBz5Od6YkofCq2-Dhd-0" value="Foto" style="text;strokeColor=none;fillColor=none;align=left;verticalAlign=top;spacingLeft=4;spacingRight=4;overflow=hidden;rotatable=0;points=[[0,0.5],[1,0.5]];portConstraint=eastwest;" parent="hHqZHQeaDjUlf17yymRI-18" vertex="1">
                    <mxGeometry y="78" width="140" height="26" as="geometry"/>
                </mxCell>
                <mxCell id="hHqZHQeaDjUlf17yymRI-21" value="email" style="text;strokeColor=none;fillColor=none;align=left;verticalAlign=top;spacingLeft=4;spacingRight=4;overflow=hidden;rotatable=0;points=[[0,0.5],[1,0.5]];portConstraint=eastwest;" parent="hHqZHQeaDjUlf17yymRI-18" vertex="1">
                    <mxGeometry y="104" width="140" height="26" as="geometry"/>
                </mxCell>
                <mxCell id="hHqZHQeaDjUlf17yymRI-24" value="Password" style="text;strokeColor=none;fillColor=none;align=left;verticalAlign=top;spacingLeft=4;spacingRight=4;overflow=hidden;rotatable=0;points=[[0,0.5],[1,0.5]];portConstraint=eastwest;" parent="hHqZHQeaDjUlf17yymRI-18" vertex="1">
                    <mxGeometry y="130" width="140" height="26" as="geometry"/>
                </mxCell>
                <mxCell id="Ferib7_GbyZPoseZmHjp-0" value="Historia" style="text;strokeColor=none;fillColor=none;align=left;verticalAlign=middle;spacingLeft=4;spacingRight=4;overflow=hidden;points=[[0,0.5],[1,0.5]];portConstraint=eastwest;rotatable=0;" vertex="1" parent="hHqZHQeaDjUlf17yymRI-18">
                    <mxGeometry y="156" width="140" height="30" as="geometry"/>
                </mxCell>
                <UserObject label="1:1" placeholders="1" name="Variable" id="hHqZHQeaDjUlf17yymRI-30">
                    <mxCell style="text;html=1;strokeColor=none;fillColor=none;align=center;verticalAlign=middle;whiteSpace=wrap;overflow=hidden;" parent="hHqZHQeaDjUlf17yymRI-1" vertex="1">
                        <mxGeometry x="230" y="134" width="30" height="20" as="geometry"/>
                    </mxCell>
                </UserObject>
                <UserObject label="1:1" placeholders="1" name="Variable" id="hHqZHQeaDjUlf17yymRI-31">
                    <mxCell style="text;html=1;strokeColor=none;fillColor=none;align=center;verticalAlign=middle;whiteSpace=wrap;overflow=hidden;" parent="hHqZHQeaDjUlf17yymRI-1" vertex="1">
                        <mxGeometry x="680" y="134" width="30" height="20" as="geometry"/>
                    </mxCell>
                </UserObject>
                <mxCell id="hHqZHQeaDjUlf17yymRI-33" value="" style="html=1;whiteSpace=wrap;aspect=fixed;shape=isoRectangle;strokeColor=#6D1F00;fillColor=#a0522d;fontColor=#ffffff;" parent="hHqZHQeaDjUlf17yymRI-1" vertex="1">
                    <mxGeometry x="268.34000000000003" y="132" width="83.33" height="50" as="geometry"/>
                </mxCell>
                <mxCell id="hHqZHQeaDjUlf17yymRI-34" value="elige" style="text;strokeColor=none;fillColor=none;align=left;verticalAlign=top;spacingLeft=4;spacingRight=4;overflow=hidden;rotatable=0;points=[[0,0.5],[1,0.5]];portConstraint=eastwest;" parent="hHqZHQeaDjUlf17yymRI-1" vertex="1">
                    <mxGeometry x="291.67" y="141" width="60" height="26" as="geometry"/>
                </mxCell>
                <mxCell id="hHqZHQeaDjUlf17yymRI-35" style="edgeStyle=none;html=1;exitX=0;exitY=0.5;exitDx=0;exitDy=0;entryX=1.006;entryY=0.546;entryDx=0;entryDy=0;entryPerimeter=0;" parent="hHqZHQeaDjUlf17yymRI-1" source="hHqZHQeaDjUlf17yymRI-21" target="hHqZHQeaDjUlf17yymRI-33" edge="1">
                    <mxGeometry relative="1" as="geometry"/>
                </mxCell>
                <mxCell id="hHqZHQeaDjUlf17yymRI-36" style="edgeStyle=none;html=1;exitX=1;exitY=0.5;exitDx=0;exitDy=0;entryX=0.011;entryY=0.537;entryDx=0;entryDy=0;entryPerimeter=0;" parent="hHqZHQeaDjUlf17yymRI-1" source="hHqZHQeaDjUlf17yymRI-14" target="hHqZHQeaDjUlf17yymRI-33" edge="1">
                    <mxGeometry relative="1" as="geometry">
                        <mxPoint x="260" y="131" as="targetPoint"/>
                    </mxGeometry>
                </mxCell>
                <UserObject label="1:1" placeholders="1" name="Variable" id="hHqZHQeaDjUlf17yymRI-37">
                    <mxCell style="text;html=1;strokeColor=none;fillColor=none;align=center;verticalAlign=middle;whiteSpace=wrap;overflow=hidden;" parent="hHqZHQeaDjUlf17yymRI-1" vertex="1">
                        <mxGeometry x="370" y="134" width="30" height="20" as="geometry"/>
                    </mxCell>
                </UserObject>
                <mxCell id="hHqZHQeaDjUlf17yymRI-38" value="" style="html=1;whiteSpace=wrap;aspect=fixed;shape=isoRectangle;strokeColor=#6D1F00;fillColor=#a0522d;fontColor=#ffffff;" parent="hHqZHQeaDjUlf17yymRI-1" vertex="1">
                    <mxGeometry x="588.3299999999999" y="132" width="83.33" height="50" as="geometry"/>
                </mxCell>
                <mxCell id="hHqZHQeaDjUlf17yymRI-39" value="elige" style="text;strokeColor=none;fillColor=none;align=left;verticalAlign=top;spacingLeft=4;spacingRight=4;overflow=hidden;rotatable=0;points=[[0,0.5],[1,0.5]];portConstraint=eastwest;" parent="hHqZHQeaDjUlf17yymRI-1" vertex="1">
                    <mxGeometry x="611.66" y="142" width="60" height="24" as="geometry"/>
                </mxCell>
                <mxCell id="hHqZHQeaDjUlf17yymRI-40" style="edgeStyle=none;html=1;exitX=0;exitY=0.5;exitDx=0;exitDy=0;entryX=1.008;entryY=0.537;entryDx=0;entryDy=0;entryPerimeter=0;" parent="hHqZHQeaDjUlf17yymRI-1" source="sWroOtHjZFTIptuPELxP-1" target="hHqZHQeaDjUlf17yymRI-38" edge="1">
                    <mxGeometry relative="1" as="geometry"/>
                </mxCell>
                <mxCell id="hHqZHQeaDjUlf17yymRI-41" style="edgeStyle=none;html=1;exitX=1;exitY=0.5;exitDx=0;exitDy=0;entryX=0.04;entryY=0.5;entryDx=0;entryDy=0;entryPerimeter=0;" parent="hHqZHQeaDjUlf17yymRI-1" source="hHqZHQeaDjUlf17yymRI-21" target="hHqZHQeaDjUlf17yymRI-38" edge="1">
                    <mxGeometry relative="1" as="geometry"/>
                </mxCell>
                <UserObject label="1:1" placeholders="1" name="Variable" id="hHqZHQeaDjUlf17yymRI-42">
                    <mxCell style="text;html=1;strokeColor=none;fillColor=none;align=center;verticalAlign=middle;whiteSpace=wrap;overflow=hidden;" parent="hHqZHQeaDjUlf17yymRI-1" vertex="1">
                        <mxGeometry x="550" y="132" width="30" height="20" as="geometry"/>
                    </mxCell>
                </UserObject>
            </root>
        </mxGraphModel>
    </diagram>
    <diagram name="Resultado de normalización" id="wtPwgygJyUGfW-qzV3mA">
        <mxGraphModel dx="1043" dy="467" grid="1" gridSize="10" guides="1" tooltips="1" connect="1" arrows="1" fold="1" page="1" pageScale="1" pageWidth="980" pageHeight="1390" background="none" math="0" shadow="0">
            <root>
                <mxCell id="BG7QxD9jQMTwQ4Rx9OvQ-0"/>
                <mxCell id="BG7QxD9jQMTwQ4Rx9OvQ-1" parent="BG7QxD9jQMTwQ4Rx9OvQ-0"/>
                <mxCell id="BG7QxD9jQMTwQ4Rx9OvQ-2" value="Carta" style="swimlane;fontStyle=0;childLayout=stackLayout;horizontal=1;startSize=26;fillColor=#60a917;horizontalStack=0;resizeParent=1;resizeParentMax=0;resizeLast=0;collapsible=1;marginBottom=0;fontColor=#ffffff;strokeColor=#2D7600;" parent="BG7QxD9jQMTwQ4Rx9OvQ-1" vertex="1">
                    <mxGeometry x="735" y="66" width="140" height="130" as="geometry"/>
                </mxCell>
                <mxCell id="BG7QxD9jQMTwQ4Rx9OvQ-3" value="Id [PK]" style="text;strokeColor=none;fillColor=none;align=left;verticalAlign=top;spacingLeft=4;spacingRight=4;overflow=hidden;rotatable=0;points=[[0,0.5],[1,0.5]];portConstraint=eastwest;" parent="BG7QxD9jQMTwQ4Rx9OvQ-2" vertex="1">
                    <mxGeometry y="26" width="140" height="26" as="geometry"/>
                </mxCell>
                <mxCell id="BG7QxD9jQMTwQ4Rx9OvQ-4" value="Nombre" style="text;strokeColor=none;fillColor=none;align=left;verticalAlign=top;spacingLeft=4;spacingRight=4;overflow=hidden;rotatable=0;points=[[0,0.5],[1,0.5]];portConstraint=eastwest;" parent="BG7QxD9jQMTwQ4Rx9OvQ-2" vertex="1">
                    <mxGeometry y="52" width="140" height="26" as="geometry"/>
                </mxCell>
                <mxCell id="BG7QxD9jQMTwQ4Rx9OvQ-8" value="Foto" style="text;strokeColor=none;fillColor=none;align=left;verticalAlign=top;spacingLeft=4;spacingRight=4;overflow=hidden;rotatable=0;points=[[0,0.5],[1,0.5]];portConstraint=eastwest;" parent="BG7QxD9jQMTwQ4Rx9OvQ-2" vertex="1">
                    <mxGeometry y="78" width="140" height="26" as="geometry"/>
                </mxCell>
                <mxCell id="BG7QxD9jQMTwQ4Rx9OvQ-5" value="Significado" style="text;strokeColor=none;fillColor=none;align=left;verticalAlign=top;spacingLeft=4;spacingRight=4;overflow=hidden;rotatable=0;points=[[0,0.5],[1,0.5]];portConstraint=eastwest;" parent="BG7QxD9jQMTwQ4Rx9OvQ-2" vertex="1">
                    <mxGeometry y="104" width="140" height="26" as="geometry"/>
                </mxCell>
                <mxCell id="BG7QxD9jQMTwQ4Rx9OvQ-10" value="Totem" style="swimlane;fontStyle=0;childLayout=stackLayout;horizontal=1;startSize=26;fillColor=#e3c800;horizontalStack=0;resizeParent=1;resizeParentMax=0;resizeLast=0;collapsible=1;marginBottom=0;fontColor=#000000;strokeColor=#B09500;" parent="BG7QxD9jQMTwQ4Rx9OvQ-1" vertex="1">
                    <mxGeometry x="105" y="66" width="140" height="130" as="geometry"/>
                </mxCell>
                <mxCell id="BG7QxD9jQMTwQ4Rx9OvQ-11" value="Id [PK]" style="text;strokeColor=none;fillColor=none;align=left;verticalAlign=top;spacingLeft=4;spacingRight=4;overflow=hidden;rotatable=0;points=[[0,0.5],[1,0.5]];portConstraint=eastwest;" parent="BG7QxD9jQMTwQ4Rx9OvQ-10" vertex="1">
                    <mxGeometry y="26" width="140" height="26" as="geometry"/>
                </mxCell>
                <mxCell id="BG7QxD9jQMTwQ4Rx9OvQ-12" value="Nombre" style="text;strokeColor=none;fillColor=none;align=left;verticalAlign=top;spacingLeft=4;spacingRight=4;overflow=hidden;rotatable=0;points=[[0,0.5],[1,0.5]];portConstraint=eastwest;" parent="BG7QxD9jQMTwQ4Rx9OvQ-10" vertex="1">
                    <mxGeometry y="52" width="140" height="26" as="geometry"/>
                </mxCell>
                <mxCell id="d0CPNtlD_YbES1VPoXTC-1" value="Foto" style="text;strokeColor=none;fillColor=none;align=left;verticalAlign=top;spacingLeft=4;spacingRight=4;overflow=hidden;rotatable=0;points=[[0,0.5],[1,0.5]];portConstraint=eastwest;" parent="BG7QxD9jQMTwQ4Rx9OvQ-10" vertex="1">
                    <mxGeometry y="78" width="140" height="26" as="geometry"/>
                </mxCell>
                <mxCell id="BG7QxD9jQMTwQ4Rx9OvQ-14" value="Significado" style="text;strokeColor=none;fillColor=none;align=left;verticalAlign=top;spacingLeft=4;spacingRight=4;overflow=hidden;rotatable=0;points=[[0,0.5],[1,0.5]];portConstraint=eastwest;" parent="BG7QxD9jQMTwQ4Rx9OvQ-10" vertex="1">
                    <mxGeometry y="104" width="140" height="26" as="geometry"/>
                </mxCell>
                <mxCell id="BG7QxD9jQMTwQ4Rx9OvQ-18" value="Usuario" style="swimlane;fontStyle=0;childLayout=stackLayout;horizontal=1;startSize=26;fillColor=#e51400;horizontalStack=0;resizeParent=1;resizeParentMax=0;resizeLast=0;collapsible=1;marginBottom=0;fontColor=#ffffff;strokeColor=#B20000;" parent="BG7QxD9jQMTwQ4Rx9OvQ-1" vertex="1">
                    <mxGeometry x="420" y="66" width="140" height="160" as="geometry"/>
                </mxCell>
                <mxCell id="BG7QxD9jQMTwQ4Rx9OvQ-19" value="Id [ [PK]" style="text;strokeColor=none;fillColor=none;align=left;verticalAlign=top;spacingLeft=4;spacingRight=4;overflow=hidden;rotatable=0;points=[[0,0.5],[1,0.5]];portConstraint=eastwest;" parent="BG7QxD9jQMTwQ4Rx9OvQ-18" vertex="1">
                    <mxGeometry y="26" width="140" height="26" as="geometry"/>
                </mxCell>
                <mxCell id="BG7QxD9jQMTwQ4Rx9OvQ-20" value="Nombre " style="text;strokeColor=none;fillColor=none;align=left;verticalAlign=top;spacingLeft=4;spacingRight=4;overflow=hidden;rotatable=0;points=[[0,0.5],[1,0.5]];portConstraint=eastwest;" parent="BG7QxD9jQMTwQ4Rx9OvQ-18" vertex="1">
                    <mxGeometry y="52" width="140" height="26" as="geometry"/>
                </mxCell>
                <mxCell id="U3ArHrAxmBmYmhFHqRsA-0" value="Foto" style="text;strokeColor=none;fillColor=none;align=left;verticalAlign=top;spacingLeft=4;spacingRight=4;overflow=hidden;rotatable=0;points=[[0,0.5],[1,0.5]];portConstraint=eastwest;" parent="BG7QxD9jQMTwQ4Rx9OvQ-18" vertex="1">
                    <mxGeometry y="78" width="140" height="26" as="geometry"/>
                </mxCell>
                <mxCell id="BG7QxD9jQMTwQ4Rx9OvQ-21" value="email" style="text;strokeColor=none;fillColor=none;align=left;verticalAlign=top;spacingLeft=4;spacingRight=4;overflow=hidden;rotatable=0;points=[[0,0.5],[1,0.5]];portConstraint=eastwest;" parent="BG7QxD9jQMTwQ4Rx9OvQ-18" vertex="1">
                    <mxGeometry y="104" width="140" height="26" as="geometry"/>
                </mxCell>
                <mxCell id="CgXusRNK-1CS-77x77qN-0" value="Password" style="text;strokeColor=none;fillColor=none;align=left;verticalAlign=middle;spacingLeft=4;spacingRight=4;overflow=hidden;points=[[0,0.5],[1,0.5]];portConstraint=eastwest;rotatable=0;" vertex="1" parent="BG7QxD9jQMTwQ4Rx9OvQ-18">
                    <mxGeometry y="130" width="140" height="30" as="geometry"/>
                </mxCell>
                <UserObject label="1:1" placeholders="1" name="Variable" id="BG7QxD9jQMTwQ4Rx9OvQ-30">
                    <mxCell style="text;html=1;strokeColor=none;fillColor=none;align=center;verticalAlign=middle;whiteSpace=wrap;overflow=hidden;" parent="BG7QxD9jQMTwQ4Rx9OvQ-1" vertex="1">
                        <mxGeometry x="245" y="134" width="30" height="20" as="geometry"/>
                    </mxCell>
                </UserObject>
                <UserObject label="1:1" placeholders="1" name="Variable" id="BG7QxD9jQMTwQ4Rx9OvQ-31">
                    <mxCell style="text;html=1;strokeColor=none;fillColor=none;align=center;verticalAlign=middle;whiteSpace=wrap;overflow=hidden;" parent="BG7QxD9jQMTwQ4Rx9OvQ-1" vertex="1">
                        <mxGeometry x="695" y="134" width="30" height="20" as="geometry"/>
                    </mxCell>
                </UserObject>
                <mxCell id="BG7QxD9jQMTwQ4Rx9OvQ-33" value="" style="html=1;whiteSpace=wrap;aspect=fixed;shape=isoRectangle;strokeColor=#6D1F00;fillColor=#a0522d;fontColor=#ffffff;" parent="BG7QxD9jQMTwQ4Rx9OvQ-1" vertex="1">
                    <mxGeometry x="283.34000000000003" y="132" width="83.33" height="50" as="geometry"/>
                </mxCell>
                <mxCell id="BG7QxD9jQMTwQ4Rx9OvQ-34" value="elige" style="text;strokeColor=none;fillColor=none;align=left;verticalAlign=top;spacingLeft=4;spacingRight=4;overflow=hidden;rotatable=0;points=[[0,0.5],[1,0.5]];portConstraint=eastwest;" parent="BG7QxD9jQMTwQ4Rx9OvQ-1" vertex="1">
                    <mxGeometry x="306.67" y="142" width="60" height="26" as="geometry"/>
                </mxCell>
                <mxCell id="BG7QxD9jQMTwQ4Rx9OvQ-35" style="edgeStyle=none;html=1;exitX=0;exitY=0.5;exitDx=0;exitDy=0;entryX=1.006;entryY=0.546;entryDx=0;entryDy=0;entryPerimeter=0;" parent="BG7QxD9jQMTwQ4Rx9OvQ-1" source="U3ArHrAxmBmYmhFHqRsA-0" target="BG7QxD9jQMTwQ4Rx9OvQ-33" edge="1">
                    <mxGeometry relative="1" as="geometry"/>
                </mxCell>
                <mxCell id="BG7QxD9jQMTwQ4Rx9OvQ-36" style="edgeStyle=none;html=1;exitX=1;exitY=0.5;exitDx=0;exitDy=0;entryX=0.011;entryY=0.537;entryDx=0;entryDy=0;entryPerimeter=0;" parent="BG7QxD9jQMTwQ4Rx9OvQ-1" target="BG7QxD9jQMTwQ4Rx9OvQ-33" edge="1">
                    <mxGeometry relative="1" as="geometry">
                        <mxPoint x="245" y="157" as="sourcePoint"/>
                        <mxPoint x="275" y="131" as="targetPoint"/>
                    </mxGeometry>
                </mxCell>
                <UserObject label="1:1" placeholders="1" name="Variable" id="BG7QxD9jQMTwQ4Rx9OvQ-37">
                    <mxCell style="text;html=1;strokeColor=none;fillColor=none;align=center;verticalAlign=middle;whiteSpace=wrap;overflow=hidden;" parent="BG7QxD9jQMTwQ4Rx9OvQ-1" vertex="1">
                        <mxGeometry x="385" y="134" width="30" height="20" as="geometry"/>
                    </mxCell>
                </UserObject>
                <mxCell id="BG7QxD9jQMTwQ4Rx9OvQ-38" value="" style="html=1;whiteSpace=wrap;aspect=fixed;shape=isoRectangle;strokeColor=#6D1F00;fillColor=#a0522d;fontColor=#ffffff;" parent="BG7QxD9jQMTwQ4Rx9OvQ-1" vertex="1">
                    <mxGeometry x="603.3299999999999" y="132" width="83.33" height="50" as="geometry"/>
                </mxCell>
                <mxCell id="BG7QxD9jQMTwQ4Rx9OvQ-39" value="elige" style="text;strokeColor=none;fillColor=none;align=left;verticalAlign=top;spacingLeft=4;spacingRight=4;overflow=hidden;rotatable=0;points=[[0,0.5],[1,0.5]];portConstraint=eastwest;" parent="BG7QxD9jQMTwQ4Rx9OvQ-1" vertex="1">
                    <mxGeometry x="625" y="142" width="60" height="24" as="geometry"/>
                </mxCell>
                <mxCell id="BG7QxD9jQMTwQ4Rx9OvQ-40" style="edgeStyle=none;html=1;exitX=0;exitY=0.5;exitDx=0;exitDy=0;entryX=1.008;entryY=0.537;entryDx=0;entryDy=0;entryPerimeter=0;" parent="BG7QxD9jQMTwQ4Rx9OvQ-1" source="BG7QxD9jQMTwQ4Rx9OvQ-8" target="BG7QxD9jQMTwQ4Rx9OvQ-38" edge="1">
                    <mxGeometry relative="1" as="geometry"/>
                </mxCell>
                <mxCell id="BG7QxD9jQMTwQ4Rx9OvQ-41" style="edgeStyle=none;html=1;exitX=1;exitY=0.5;exitDx=0;exitDy=0;entryX=0.04;entryY=0.5;entryDx=0;entryDy=0;entryPerimeter=0;" parent="BG7QxD9jQMTwQ4Rx9OvQ-1" source="U3ArHrAxmBmYmhFHqRsA-0" target="BG7QxD9jQMTwQ4Rx9OvQ-38" edge="1">
                    <mxGeometry relative="1" as="geometry"/>
                </mxCell>
                <UserObject label="1:1" placeholders="1" name="Variable" id="BG7QxD9jQMTwQ4Rx9OvQ-42">
                    <mxCell style="text;html=1;strokeColor=none;fillColor=none;align=center;verticalAlign=middle;whiteSpace=wrap;overflow=hidden;" parent="BG7QxD9jQMTwQ4Rx9OvQ-1" vertex="1">
                        <mxGeometry x="565" y="132" width="30" height="20" as="geometry"/>
                    </mxCell>
                </UserObject>
                <mxCell id="lgilEVqm8y5rOW4Q8oL_-0" value="Historia" style="swimlane;fontStyle=0;childLayout=stackLayout;horizontal=1;startSize=26;fillColor=#e51400;horizontalStack=0;resizeParent=1;resizeParentMax=0;resizeLast=0;collapsible=1;marginBottom=0;strokeColor=#B20000;fontColor=#ffffff;" parent="BG7QxD9jQMTwQ4Rx9OvQ-1" vertex="1">
                    <mxGeometry x="425" y="290" width="140" height="130" as="geometry"/>
                </mxCell>
                <mxCell id="EHH5YIm8Tsjwx0MEBzxm-0" value="Id [PK]" style="text;strokeColor=none;fillColor=none;align=left;verticalAlign=top;spacingLeft=4;spacingRight=4;overflow=hidden;rotatable=0;points=[[0,0.5],[1,0.5]];portConstraint=eastwest;" parent="lgilEVqm8y5rOW4Q8oL_-0" vertex="1">
                    <mxGeometry y="26" width="140" height="26" as="geometry"/>
                </mxCell>
                <mxCell id="BG7QxD9jQMTwQ4Rx9OvQ-24" value="Fecha" style="text;strokeColor=none;fillColor=none;align=left;verticalAlign=top;spacingLeft=4;spacingRight=4;overflow=hidden;rotatable=0;points=[[0,0.5],[1,0.5]];portConstraint=eastwest;" parent="lgilEVqm8y5rOW4Q8oL_-0" vertex="1">
                    <mxGeometry y="52" width="140" height="26" as="geometry"/>
                </mxCell>
                <mxCell id="mOWbQC3Fh-2ekg8T0uty-0" value="Consulta" style="text;strokeColor=none;fillColor=none;align=left;verticalAlign=top;spacingLeft=4;spacingRight=4;overflow=hidden;rotatable=0;points=[[0,0.5],[1,0.5]];portConstraint=eastwest;" parent="lgilEVqm8y5rOW4Q8oL_-0" vertex="1">
                    <mxGeometry y="78" width="140" height="26" as="geometry"/>
                </mxCell>
                <mxCell id="BG7QxD9jQMTwQ4Rx9OvQ-22" value="Eleccion" style="text;strokeColor=none;fillColor=none;align=left;verticalAlign=top;spacingLeft=4;spacingRight=4;overflow=hidden;rotatable=0;points=[[0,0.5],[1,0.5]];portConstraint=eastwest;" parent="lgilEVqm8y5rOW4Q8oL_-0" vertex="1">
                    <mxGeometry y="104" width="140" height="26" as="geometry"/>
                </mxCell>
                <UserObject label="1:N" placeholders="1" name="Variable" id="mpLI7O_98xhBARXVCF82-1">
                    <mxCell style="text;html=1;strokeColor=none;fillColor=none;align=center;verticalAlign=middle;whiteSpace=wrap;overflow=hidden;" parent="BG7QxD9jQMTwQ4Rx9OvQ-1" vertex="1">
                        <mxGeometry x="505" y="240" width="30" height="20" as="geometry"/>
                    </mxCell>
                </UserObject>
                <mxCell id="QhE3w1BCjLqs03HuQT-J-0" value="" style="endArrow=classic;html=1;entryX=0.5;entryY=0;entryDx=0;entryDy=0;" edge="1" parent="BG7QxD9jQMTwQ4Rx9OvQ-1" target="lgilEVqm8y5rOW4Q8oL_-0">
                    <mxGeometry width="50" height="50" relative="1" as="geometry">
                        <mxPoint x="495" y="230" as="sourcePoint"/>
                        <mxPoint x="510" y="220" as="targetPoint"/>
                    </mxGeometry>
                </mxCell>
            </root>
        </mxGraphModel>
    </diagram>
    <diagram id="S4X9rVfOetPk_PhVlirD" name="Modelo físico">
        <mxGraphModel dx="1043" dy="467" grid="1" gridSize="10" guides="1" tooltips="1" connect="1" arrows="1" fold="1" page="1" pageScale="1" pageWidth="1920" pageHeight="1200" math="0" shadow="0">
            <root>
                <mxCell id="Qrj11K5hMNmJTIuV7sPg-0"/>
                <mxCell id="Qrj11K5hMNmJTIuV7sPg-1" parent="Qrj11K5hMNmJTIuV7sPg-0"/>
                <mxCell id="Qrj11K5hMNmJTIuV7sPg-2" value="Carta" style="swimlane;fontStyle=0;childLayout=stackLayout;horizontal=1;startSize=26;fillColor=#60a917;horizontalStack=0;resizeParent=1;resizeParentMax=0;resizeLast=0;collapsible=1;marginBottom=0;fontColor=#ffffff;strokeColor=#2D7600;" vertex="1" parent="Qrj11K5hMNmJTIuV7sPg-1">
                    <mxGeometry x="940" y="100" width="230" height="130" as="geometry"/>
                </mxCell>
                <mxCell id="Qrj11K5hMNmJTIuV7sPg-3" value="Id SERIAL [PK]" style="text;strokeColor=none;fillColor=none;align=left;verticalAlign=top;spacingLeft=4;spacingRight=4;overflow=hidden;rotatable=0;points=[[0,0.5],[1,0.5]];portConstraint=eastwest;" vertex="1" parent="Qrj11K5hMNmJTIuV7sPg-2">
                    <mxGeometry y="26" width="230" height="26" as="geometry"/>
                </mxCell>
                <mxCell id="Qrj11K5hMNmJTIuV7sPg-4" value="nombre VARCHAR (50) NOT NULL" style="text;strokeColor=none;fillColor=none;align=left;verticalAlign=top;spacingLeft=4;spacingRight=4;overflow=hidden;rotatable=0;points=[[0,0.5],[1,0.5]];portConstraint=eastwest;" vertex="1" parent="Qrj11K5hMNmJTIuV7sPg-2">
                    <mxGeometry y="52" width="230" height="26" as="geometry"/>
                </mxCell>
                <mxCell id="Qrj11K5hMNmJTIuV7sPg-5" value="foto VARCHAR (255) NOT NULL" style="text;strokeColor=none;fillColor=none;align=left;verticalAlign=top;spacingLeft=4;spacingRight=4;overflow=hidden;rotatable=0;points=[[0,0.5],[1,0.5]];portConstraint=eastwest;" vertex="1" parent="Qrj11K5hMNmJTIuV7sPg-2">
                    <mxGeometry y="78" width="230" height="26" as="geometry"/>
                </mxCell>
                <mxCell id="Qrj11K5hMNmJTIuV7sPg-6" value="significado VARCHAR (2000) NOT NUL" style="text;strokeColor=none;fillColor=none;align=left;verticalAlign=top;spacingLeft=4;spacingRight=4;overflow=hidden;rotatable=0;points=[[0,0.5],[1,0.5]];portConstraint=eastwest;" vertex="1" parent="Qrj11K5hMNmJTIuV7sPg-2">
                    <mxGeometry y="104" width="230" height="26" as="geometry"/>
                </mxCell>
                <mxCell id="Qrj11K5hMNmJTIuV7sPg-7" value="Totem" style="swimlane;fontStyle=0;childLayout=stackLayout;horizontal=1;startSize=26;fillColor=#e3c800;horizontalStack=0;resizeParent=1;resizeParentMax=0;resizeLast=0;collapsible=1;marginBottom=0;fontColor=#000000;strokeColor=#B09500;" vertex="1" parent="Qrj11K5hMNmJTIuV7sPg-1">
                    <mxGeometry x="100" y="100" width="230" height="130" as="geometry"/>
                </mxCell>
                <mxCell id="Qrj11K5hMNmJTIuV7sPg-8" value="Id SERIAL [PK]" style="text;strokeColor=none;fillColor=none;align=left;verticalAlign=top;spacingLeft=4;spacingRight=4;overflow=hidden;rotatable=0;points=[[0,0.5],[1,0.5]];portConstraint=eastwest;" vertex="1" parent="Qrj11K5hMNmJTIuV7sPg-7">
                    <mxGeometry y="26" width="230" height="26" as="geometry"/>
                </mxCell>
                <mxCell id="Qrj11K5hMNmJTIuV7sPg-9" value="nombre VARCHAR (50) NOT NULL" style="text;strokeColor=none;fillColor=none;align=left;verticalAlign=top;spacingLeft=4;spacingRight=4;overflow=hidden;rotatable=0;points=[[0,0.5],[1,0.5]];portConstraint=eastwest;" vertex="1" parent="Qrj11K5hMNmJTIuV7sPg-7">
                    <mxGeometry y="52" width="230" height="26" as="geometry"/>
                </mxCell>
                <mxCell id="Qrj11K5hMNmJTIuV7sPg-10" value="foto VARCHAR (255) NOT NULL" style="text;strokeColor=none;fillColor=none;align=left;verticalAlign=top;spacingLeft=4;spacingRight=4;overflow=hidden;rotatable=0;points=[[0,0.5],[1,0.5]];portConstraint=eastwest;" vertex="1" parent="Qrj11K5hMNmJTIuV7sPg-7">
                    <mxGeometry y="78" width="230" height="26" as="geometry"/>
                </mxCell>
                <mxCell id="Qrj11K5hMNmJTIuV7sPg-11" value="significado VARCHAR (2000) NOT NULL" style="text;strokeColor=none;fillColor=none;align=left;verticalAlign=top;spacingLeft=4;spacingRight=4;overflow=hidden;rotatable=0;points=[[0,0.5],[1,0.5]];portConstraint=eastwest;" vertex="1" parent="Qrj11K5hMNmJTIuV7sPg-7">
                    <mxGeometry y="104" width="230" height="26" as="geometry"/>
                </mxCell>
                <mxCell id="Qrj11K5hMNmJTIuV7sPg-12" value="Usuario" style="swimlane;fontStyle=0;childLayout=stackLayout;horizontal=1;startSize=26;fillColor=#e51400;horizontalStack=0;resizeParent=1;resizeParentMax=0;resizeLast=0;collapsible=1;marginBottom=0;fontColor=#ffffff;strokeColor=#B20000;" vertex="1" parent="Qrj11K5hMNmJTIuV7sPg-1">
                    <mxGeometry x="505" y="100" width="215" height="160" as="geometry"/>
                </mxCell>
                <mxCell id="Qrj11K5hMNmJTIuV7sPg-13" value="Id SERIAL [ [PK]" style="text;strokeColor=none;fillColor=none;align=left;verticalAlign=top;spacingLeft=4;spacingRight=4;overflow=hidden;rotatable=0;points=[[0,0.5],[1,0.5]];portConstraint=eastwest;" vertex="1" parent="Qrj11K5hMNmJTIuV7sPg-12">
                    <mxGeometry y="26" width="215" height="26" as="geometry"/>
                </mxCell>
                <mxCell id="Qrj11K5hMNmJTIuV7sPg-14" value="nombre VARCHAR (50) NOT NULL" style="text;strokeColor=none;fillColor=none;align=left;verticalAlign=top;spacingLeft=4;spacingRight=4;overflow=hidden;rotatable=0;points=[[0,0.5],[1,0.5]];portConstraint=eastwest;" vertex="1" parent="Qrj11K5hMNmJTIuV7sPg-12">
                    <mxGeometry y="52" width="215" height="26" as="geometry"/>
                </mxCell>
                <mxCell id="Qrj11K5hMNmJTIuV7sPg-15" value="foto VARCHAR (255) NOT NULL" style="text;strokeColor=none;fillColor=none;align=left;verticalAlign=top;spacingLeft=4;spacingRight=4;overflow=hidden;rotatable=0;points=[[0,0.5],[1,0.5]];portConstraint=eastwest;" vertex="1" parent="Qrj11K5hMNmJTIuV7sPg-12">
                    <mxGeometry y="78" width="215" height="26" as="geometry"/>
                </mxCell>
                <mxCell id="Qrj11K5hMNmJTIuV7sPg-16" value="email VARCHAR (255) NOT NULL" style="text;strokeColor=none;fillColor=none;align=left;verticalAlign=top;spacingLeft=4;spacingRight=4;overflow=hidden;rotatable=0;points=[[0,0.5],[1,0.5]];portConstraint=eastwest;" vertex="1" parent="Qrj11K5hMNmJTIuV7sPg-12">
                    <mxGeometry y="104" width="215" height="26" as="geometry"/>
                </mxCell>
                <mxCell id="efPjHEqXocMnaUuM30s_-0" value="password VARCHAR (255) NOT NULL" style="text;strokeColor=none;fillColor=none;align=left;verticalAlign=middle;spacingLeft=4;spacingRight=4;overflow=hidden;points=[[0,0.5],[1,0.5]];portConstraint=eastwest;rotatable=0;" vertex="1" parent="Qrj11K5hMNmJTIuV7sPg-12">
                    <mxGeometry y="130" width="215" height="30" as="geometry"/>
                </mxCell>
                <UserObject label="1:1" placeholders="1" name="Variable" id="Qrj11K5hMNmJTIuV7sPg-17">
                    <mxCell style="text;html=1;strokeColor=none;fillColor=none;align=center;verticalAlign=middle;whiteSpace=wrap;overflow=hidden;" vertex="1" parent="Qrj11K5hMNmJTIuV7sPg-1">
                        <mxGeometry x="330" y="168" width="30" height="20" as="geometry"/>
                    </mxCell>
                </UserObject>
                <UserObject label="1:1" placeholders="1" name="Variable" id="Qrj11K5hMNmJTIuV7sPg-18">
                    <mxCell style="text;html=1;strokeColor=none;fillColor=none;align=center;verticalAlign=middle;whiteSpace=wrap;overflow=hidden;" vertex="1" parent="Qrj11K5hMNmJTIuV7sPg-1">
                        <mxGeometry x="910" y="166" width="30" height="20" as="geometry"/>
                    </mxCell>
                </UserObject>
                <mxCell id="Qrj11K5hMNmJTIuV7sPg-19" value="" style="html=1;whiteSpace=wrap;aspect=fixed;shape=isoRectangle;strokeColor=#6D1F00;fillColor=#a0522d;fontColor=#ffffff;" vertex="1" parent="Qrj11K5hMNmJTIuV7sPg-1">
                    <mxGeometry x="368.34000000000003" y="166" width="83.33" height="50" as="geometry"/>
                </mxCell>
                <mxCell id="Qrj11K5hMNmJTIuV7sPg-20" value="elige" style="text;strokeColor=none;fillColor=none;align=left;verticalAlign=top;spacingLeft=4;spacingRight=4;overflow=hidden;rotatable=0;points=[[0,0.5],[1,0.5]];portConstraint=eastwest;" vertex="1" parent="Qrj11K5hMNmJTIuV7sPg-1">
                    <mxGeometry x="391.67" y="176" width="60" height="26" as="geometry"/>
                </mxCell>
                <mxCell id="Qrj11K5hMNmJTIuV7sPg-21" style="edgeStyle=none;html=1;exitX=0;exitY=0.5;exitDx=0;exitDy=0;entryX=1.006;entryY=0.546;entryDx=0;entryDy=0;entryPerimeter=0;" edge="1" source="Qrj11K5hMNmJTIuV7sPg-15" target="Qrj11K5hMNmJTIuV7sPg-19" parent="Qrj11K5hMNmJTIuV7sPg-1">
                    <mxGeometry relative="1" as="geometry"/>
                </mxCell>
                <UserObject label="1:1" placeholders="1" name="Variable" id="Qrj11K5hMNmJTIuV7sPg-23">
                    <mxCell style="text;html=1;strokeColor=none;fillColor=none;align=center;verticalAlign=middle;whiteSpace=wrap;overflow=hidden;" vertex="1" parent="Qrj11K5hMNmJTIuV7sPg-1">
                        <mxGeometry x="470" y="168" width="30" height="20" as="geometry"/>
                    </mxCell>
                </UserObject>
                <mxCell id="Qrj11K5hMNmJTIuV7sPg-24" value="" style="html=1;whiteSpace=wrap;aspect=fixed;shape=isoRectangle;strokeColor=#6D1F00;fillColor=#a0522d;fontColor=#ffffff;" vertex="1" parent="Qrj11K5hMNmJTIuV7sPg-1">
                    <mxGeometry x="791.67" y="166" width="83.33" height="50" as="geometry"/>
                </mxCell>
                <mxCell id="Qrj11K5hMNmJTIuV7sPg-25" value="elige" style="text;strokeColor=none;fillColor=none;align=left;verticalAlign=top;spacingLeft=4;spacingRight=4;overflow=hidden;rotatable=0;points=[[0,0.5],[1,0.5]];portConstraint=eastwest;" vertex="1" parent="Qrj11K5hMNmJTIuV7sPg-1">
                    <mxGeometry x="815" y="177" width="60" height="24" as="geometry"/>
                </mxCell>
                <mxCell id="Qrj11K5hMNmJTIuV7sPg-27" style="edgeStyle=none;html=1;exitX=1;exitY=0.5;exitDx=0;exitDy=0;entryX=0.04;entryY=0.5;entryDx=0;entryDy=0;entryPerimeter=0;" edge="1" source="Qrj11K5hMNmJTIuV7sPg-15" target="Qrj11K5hMNmJTIuV7sPg-24" parent="Qrj11K5hMNmJTIuV7sPg-1">
                    <mxGeometry relative="1" as="geometry"/>
                </mxCell>
                <UserObject label="1:1" placeholders="1" name="Variable" id="Qrj11K5hMNmJTIuV7sPg-28">
                    <mxCell style="text;html=1;strokeColor=none;fillColor=none;align=center;verticalAlign=middle;whiteSpace=wrap;overflow=hidden;" vertex="1" parent="Qrj11K5hMNmJTIuV7sPg-1">
                        <mxGeometry x="720" y="166" width="30" height="20" as="geometry"/>
                    </mxCell>
                </UserObject>
                <mxCell id="Qrj11K5hMNmJTIuV7sPg-29" value="Historia" style="swimlane;fontStyle=0;childLayout=stackLayout;horizontal=1;startSize=26;fillColor=#e51400;horizontalStack=0;resizeParent=1;resizeParentMax=0;resizeLast=0;collapsible=1;marginBottom=0;strokeColor=#B20000;fontColor=#ffffff;" vertex="1" parent="Qrj11K5hMNmJTIuV7sPg-1">
                    <mxGeometry x="457.5" y="330" width="310" height="160" as="geometry"/>
                </mxCell>
                <mxCell id="Qrj11K5hMNmJTIuV7sPg-30" value="Id SERIAL [PK]" style="text;strokeColor=none;fillColor=none;align=left;verticalAlign=top;spacingLeft=4;spacingRight=4;overflow=hidden;rotatable=0;points=[[0,0.5],[1,0.5]];portConstraint=eastwest;" vertex="1" parent="Qrj11K5hMNmJTIuV7sPg-29">
                    <mxGeometry y="26" width="310" height="26" as="geometry"/>
                </mxCell>
                <mxCell id="Qrj11K5hMNmJTIuV7sPg-31" value="fecha NOT NULL" style="text;strokeColor=none;fillColor=none;align=left;verticalAlign=top;spacingLeft=4;spacingRight=4;overflow=hidden;rotatable=0;points=[[0,0.5],[1,0.5]];portConstraint=eastwest;" vertex="1" parent="Qrj11K5hMNmJTIuV7sPg-29">
                    <mxGeometry y="52" width="310" height="26" as="geometry"/>
                </mxCell>
                <mxCell id="Qrj11K5hMNmJTIuV7sPg-32" value="consulta BOOLEAN" style="text;strokeColor=none;fillColor=none;align=left;verticalAlign=top;spacingLeft=4;spacingRight=4;overflow=hidden;rotatable=0;points=[[0,0.5],[1,0.5]];portConstraint=eastwest;" vertex="1" parent="Qrj11K5hMNmJTIuV7sPg-29">
                    <mxGeometry y="78" width="310" height="26" as="geometry"/>
                </mxCell>
                <mxCell id="Qrj11K5hMNmJTIuV7sPg-33" value="eleccion VARCHAR (50) NOT NULL" style="text;strokeColor=none;fillColor=none;align=left;verticalAlign=top;spacingLeft=4;spacingRight=4;overflow=hidden;rotatable=0;points=[[0,0.5],[1,0.5]];portConstraint=eastwest;" vertex="1" parent="Qrj11K5hMNmJTIuV7sPg-29">
                    <mxGeometry y="104" width="310" height="26" as="geometry"/>
                </mxCell>
                <mxCell id="efPjHEqXocMnaUuM30s_-7" value="contrasta [FK] usuario_id REFERENCES usuarios(id)" style="text;strokeColor=none;fillColor=none;align=left;verticalAlign=middle;spacingLeft=4;spacingRight=4;overflow=hidden;points=[[0,0.5],[1,0.5]];portConstraint=eastwest;rotatable=0;" vertex="1" parent="Qrj11K5hMNmJTIuV7sPg-29">
                    <mxGeometry y="130" width="310" height="30" as="geometry"/>
                </mxCell>
                <UserObject label="1:N" placeholders="1" name="Variable" id="Qrj11K5hMNmJTIuV7sPg-34">
                    <mxCell style="text;html=1;strokeColor=none;fillColor=none;align=center;verticalAlign=middle;whiteSpace=wrap;overflow=hidden;" vertex="1" parent="Qrj11K5hMNmJTIuV7sPg-1">
                        <mxGeometry x="630" y="290" width="30" height="20" as="geometry"/>
                    </mxCell>
                </UserObject>
                <mxCell id="Qrj11K5hMNmJTIuV7sPg-35" value="" style="endArrow=classic;html=1;entryX=0.5;entryY=0;entryDx=0;entryDy=0;" edge="1" target="Qrj11K5hMNmJTIuV7sPg-29" parent="Qrj11K5hMNmJTIuV7sPg-1">
                    <mxGeometry width="50" height="50" relative="1" as="geometry">
                        <mxPoint x="613" y="260" as="sourcePoint"/>
                        <mxPoint x="595" y="254" as="targetPoint"/>
                    </mxGeometry>
                </mxCell>
                <mxCell id="efPjHEqXocMnaUuM30s_-5" value="" style="endArrow=classic;html=1;exitX=1;exitY=0.5;exitDx=0;exitDy=0;entryX=0;entryY=0.5;entryDx=0;entryDy=0;" edge="1" parent="Qrj11K5hMNmJTIuV7sPg-1" source="Qrj11K5hMNmJTIuV7sPg-25" target="Qrj11K5hMNmJTIuV7sPg-5">
                    <mxGeometry width="50" height="50" relative="1" as="geometry">
                        <mxPoint x="750" y="270" as="sourcePoint"/>
                        <mxPoint x="800" y="220" as="targetPoint"/>
                    </mxGeometry>
                </mxCell>
                <mxCell id="efPjHEqXocMnaUuM30s_-6" value="" style="endArrow=classic;html=1;exitX=0.008;exitY=0.52;exitDx=0;exitDy=0;exitPerimeter=0;entryX=1;entryY=0.5;entryDx=0;entryDy=0;" edge="1" parent="Qrj11K5hMNmJTIuV7sPg-1" source="Qrj11K5hMNmJTIuV7sPg-19" target="Qrj11K5hMNmJTIuV7sPg-10">
                    <mxGeometry width="50" height="50" relative="1" as="geometry">
                        <mxPoint x="750" y="270" as="sourcePoint"/>
                        <mxPoint x="800" y="220" as="targetPoint"/>
                    </mxGeometry>
                </mxCell>
            </root>
        </mxGraphModel>
    </diagram>
</mxfile>